HIERARCHY
ROOT Hips
{
  OFFSET 352.076 86.5813 226.294
  CHANNELS 6 Xposition Yposition Zposition Zrotation Xrotation Yrotation
  JOINT RightUpLeg
  {
    OFFSET -9.25848 -1.52254 -0.00947547
    CHANNELS 6 Xposition Yposition Zposition Zrotation Xrotation Yrotation
    JOINT RightLeg
    {
      OFFSET 0.0379729 -41.8785 0.0492041
      CHANNELS 6 Xposition Yposition Zposition Zrotation Xrotation Yrotation
      JOINT RightFoot
      {
        OFFSET 0.0737403 -43.7597 -0.208372
        CHANNELS 6 Xposition Yposition Zposition Zrotation Xrotation Yrotation
        End Site
        {
          OFFSET 0 -7.69 17.5
        }
      }
    }
  }
  JOINT LeftUpLeg
  {
    OFFSET 9.30605 -1.64847 -0.0333589
    CHANNELS 6 Xposition Yposition Zposition Zrotation Xrotation Yrotation
    JOINT LeftLeg
    {
      OFFSET 0.0845421 -41.8726 -0.0616493
      CHANNELS 6 Xposition Yposition Zposition Zrotation Xrotation Yrotation
      JOINT LeftFoot
      {
        OFFSET 0.763074 -39.9619 0.249975
        CHANNELS 6 Xposition Yposition Zposition Zrotation Xrotation Yrotation
        End Site
        {
          OFFSET 0 -7.69 17.5
        }
      }
    }
  }
  JOINT Spine
  {
    OFFSET 0.11106 14.2934 0.0894584
    CHANNELS 6 Xposition Yposition Zposition Zrotation Xrotation Yrotation
    JOINT Spine1
    {
      OFFSET 0.0557777 9.71798 0.0263676
      CHANNELS 6 Xposition Yposition Zposition Zrotation Xrotation Yrotation
      JOINT Spine2
      {
        OFFSET 0.0442737 10.1145 -0.0117842
        CHANNELS 6 Xposition Yposition Zposition Zrotation Xrotation Yrotation
        JOINT Spine3
        {
          OFFSET 0.0354535 9.71864 0.0136123
          CHANNELS 6 Xposition Yposition Zposition Zrotation Xrotation Yrotation
          JOINT Neck
          {
            OFFSET 0.216864 10.376 0.0850679
            CHANNELS 6 Xposition Yposition Zposition Zrotation Xrotation Yrotation
            JOINT Head
            {
              OFFSET 0.200748 9.48045 0.0859572
              CHANNELS 6 Xposition Yposition Zposition Zrotation Xrotation Yrotation
              End Site
              {
                OFFSET 0 15.95 0
              }
            }
          }
          JOINT RightShoulder
          {
            OFFSET -3.14332 6.95087 0.0722087
            CHANNELS 6 Xposition Yposition Zposition Zrotation Xrotation Yrotation
            JOINT RightArm
            {
              OFFSET -12.7643 0.137663 0.228635
              CHANNELS 6 Xposition Yposition Zposition Zrotation Xrotation Yrotation
              JOINT RightForeArm
              {
                OFFSET -26.5447 -0.389186 -0.00603507
                CHANNELS 6 Xposition Yposition Zposition Zrotation Xrotation Yrotation
                JOINT RightHand
                {
                  OFFSET -26.1282 -0.0585664 0.0704552
                  CHANNELS 6 Xposition Yposition Zposition Zrotation Xrotation Yrotation
                  JOINT RightHandThumb1
                  {
                    OFFSET -2.48905 0.190105 3.12053
                    CHANNELS 6 Xposition Yposition Zposition Zrotation Xrotation Yrotation
                    JOINT RightHandThumb2
                    {
                      OFFSET -3.68274 0 0
                      CHANNELS 6 Xposition Yposition Zposition Zrotation Xrotation Yrotation
                      JOINT RightHandThumb3
                      {
                        OFFSET -2.55832 0 0
                        CHANNELS 6 Xposition Yposition Zposition Zrotation Xrotation Yrotation
                        End Site
                        {
                          OFFSET -2.194 0 0
                        }
                      }
                    }
                  }
                  JOINT RightInHandIndex
                  {
                    OFFSET -3.22368 0.508421 1.97842
                    CHANNELS 6 Xposition Yposition Zposition Zrotation Xrotation Yrotation
                    JOINT RightHandIndex1
                    {
                      OFFSET -5.21684 -0.091368 0.999158
                      CHANNELS 6 Xposition Yposition Zposition Zrotation Xrotation Yrotation
                      JOINT RightHandIndex2
                      {
                        OFFSET -3.61937 0 0
                        CHANNELS 6 Xposition Yposition Zposition Zrotation Xrotation Yrotation
                        JOINT RightHandIndex3
                        {
                          OFFSET -2.0521 0 0
                          CHANNELS 6 Xposition Yposition Zposition Zrotation Xrotation Yrotation
                          End Site
                          {
                            OFFSET -1.805 0 0
                          }
                        }
                      }
                    }
                  }
                  JOINT RightInHandMiddle
                  {
                    OFFSET -3.38211 0.517263 0.756737
                    CHANNELS 6 Xposition Yposition Zposition Zrotation Xrotation Yrotation
                    JOINT RightHandMiddle1
                    {
                      OFFSET -5.17411 -0.084 0.313895
                      CHANNELS 6 Xposition Yposition Zposition Zrotation Xrotation Yrotation
                      JOINT RightHandMiddle2
                      {
                        OFFSET -3.94947 0 0
                        CHANNELS 6 Xposition Yposition Zposition Zrotation Xrotation Yrotation
                        JOINT RightHandMiddle3
                        {
                          OFFSET -2.47579 0 0
                          CHANNELS 6 Xposition Yposition Zposition Zrotation Xrotation Yrotation
                          End Site
                          {
                            OFFSET -1.975 0 0
                          }
                        }
                      }
                    }
                  }
                  JOINT RightInHandRing
                  {
                    OFFSET -3.36516 0.537895 -0.128947
                    CHANNELS 6 Xposition Yposition Zposition Zrotation Xrotation Yrotation
                    JOINT RightHandRing1
                    {
                      OFFSET -4.63474 -0.022105 -0.478947
                      CHANNELS 6 Xposition Yposition Zposition Zrotation Xrotation Yrotation
                      JOINT RightHandRing2
                      {
                        OFFSET -3.44238 0 0
                        CHANNELS 6 Xposition Yposition Zposition Zrotation Xrotation Yrotation
                        JOINT RightHandRing3
                        {
                          OFFSET -2.3881 0 0
                          CHANNELS 6 Xposition Yposition Zposition Zrotation Xrotation Yrotation
                          End Site
                          {
                            OFFSET -1.857 0 0
                          }
                        }
                      }
                    }
                  }
                  JOINT RightInHandPinky
                  {
                    OFFSET -3.16105 0.469368 -1.20179
                    CHANNELS 6 Xposition Yposition Zposition Zrotation Xrotation Yrotation
                    JOINT RightHandPinky1
                    {
                      OFFSET -4.14105 -0.022105 -1.09053
                      CHANNELS 6 Xposition Yposition Zposition Zrotation Xrotation Yrotation
                      JOINT RightHandPinky2
                      {
                        OFFSET -2.75653 0 0
                        CHANNELS 6 Xposition Yposition Zposition Zrotation Xrotation Yrotation
                        JOINT RightHandPinky3
                        {
                          OFFSET -1.74189 0 0
                          CHANNELS 6 Xposition Yposition Zposition Zrotation Xrotation Yrotation
                          End Site
                          {
                            OFFSET -1.645 0 0
                          }
                        }
                      }
                    }
                  }
                }
              }
            }
          }
          JOINT LeftShoulder
          {
            OFFSET 3.26531 6.89455 -0.038198
            CHANNELS 6 Xposition Yposition Zposition Zrotation Xrotation Yrotation
            JOINT LeftArm
            {
              OFFSET 12.4839 0.0180023 -0.0323257
              CHANNELS 6 Xposition Yposition Zposition Zrotation Xrotation Yrotation
              JOINT LeftForeArm
              {
                OFFSET 26.5016 -0.126002 0.247609
                CHANNELS 6 Xposition Yposition Zposition Zrotation Xrotation Yrotation
                JOINT LeftHand
                {
                  OFFSET 25.9993 -0.023235 0.00532866
                  CHANNELS 6 Xposition Yposition Zposition Zrotation Xrotation Yrotation
                  JOINT LeftHandThumb1
                  {
                    OFFSET 2.48905 0.190105 3.12053
                    CHANNELS 6 Xposition Yposition Zposition Zrotation Xrotation Yrotation
                    JOINT LeftHandThumb2
                    {
                      OFFSET 3.68274 0 0
                      CHANNELS 6 Xposition Yposition Zposition Zrotation Xrotation Yrotation
                      JOINT LeftHandThumb3
                      {
                        OFFSET 2.55832 0 0
                        CHANNELS 6 Xposition Yposition Zposition Zrotation Xrotation Yrotation
                        End Site
                        {
                          OFFSET 2.194 0 0
                        }
                      }
                    }
                  }
                  JOINT LeftInHandIndex
                  {
                    OFFSET 3.22368 0.508421 1.97842
                    CHANNELS 6 Xposition Yposition Zposition Zrotation Xrotation Yrotation
                    JOINT LeftHandIndex1
                    {
                      OFFSET 5.21684 -0.091368 0.999158
                      CHANNELS 6 Xposition Yposition Zposition Zrotation Xrotation Yrotation
                      JOINT LeftHandIndex2
                      {
                        OFFSET 3.61937 0 0
                        CHANNELS 6 Xposition Yposition Zposition Zrotation Xrotation Yrotation
                        JOINT LeftHandIndex3
                        {
                          OFFSET 2.0521 0 0
                          CHANNELS 6 Xposition Yposition Zposition Zrotation Xrotation Yrotation
                          End Site
                          {
                            OFFSET 1.805 0 0
                          }
                        }
                      }
                    }
                  }
                  JOINT LeftInHandMiddle
                  {
                    OFFSET 3.38211 0.517263 0.756737
                    CHANNELS 6 Xposition Yposition Zposition Zrotation Xrotation Yrotation
                    JOINT LeftHandMiddle1
                    {
                      OFFSET 5.17411 -0.084 0.313895
                      CHANNELS 6 Xposition Yposition Zposition Zrotation Xrotation Yrotation
                      JOINT LeftHandMiddle2
                      {
                        OFFSET 3.94947 0 0
                        CHANNELS 6 Xposition Yposition Zposition Zrotation Xrotation Yrotation
                        JOINT LeftHandMiddle3
                        {
                          OFFSET 2.47579 0 0
                          CHANNELS 6 Xposition Yposition Zposition Zrotation Xrotation Yrotation
                          End Site
                          {
                            OFFSET 1.975 0 0
                          }
                        }
                      }
                    }
                  }
                  JOINT LeftInHandRing
                  {
                    OFFSET 3.36516 0.537895 -0.128947
                    CHANNELS 6 Xposition Yposition Zposition Zrotation Xrotation Yrotation
                    JOINT LeftHandRing1
                    {
                      OFFSET 4.63474 -0.022105 -0.478947
                      CHANNELS 6 Xposition Yposition Zposition Zrotation Xrotation Yrotation
                      JOINT LeftHandRing2
                      {
                        OFFSET 3.44238 0 0
                        CHANNELS 6 Xposition Yposition Zposition Zrotation Xrotation Yrotation
                        JOINT LeftHandRing3
                        {
                          OFFSET 2.3881 0 0
                          CHANNELS 6 Xposition Yposition Zposition Zrotation Xrotation Yrotation
                          End Site
                          {
                            OFFSET 1.857 0 0
                          }
                        }
                      }
                    }
                  }
                  JOINT LeftInHandPinky
                  {
                    OFFSET 3.16105 0.469368 -1.20179
                    CHANNELS 6 Xposition Yposition Zposition Zrotation Xrotation Yrotation
                    JOINT LeftHandPinky1
                    {
                      OFFSET 4.14105 -0.022105 -1.09053
                      CHANNELS 6 Xposition Yposition Zposition Zrotation Xrotation Yrotation
                      JOINT LeftHandPinky2
                      {
                        OFFSET 2.75653 0 0
                        CHANNELS 6 Xposition Yposition Zposition Zrotation Xrotation Yrotation
                        JOINT LeftHandPinky3
                        {
                          OFFSET 1.74189 0 0
                          CHANNELS 6 Xposition Yposition Zposition Zrotation Xrotation Yrotation
                          End Site
                          {
                            OFFSET 1.645 0 0
                          }
                        }
                      }
                    }
                  }
                }
              }
            }
          }
        }
      }
    }
  }
}
MOTION
Frames:	3
Frame Time:	0.00833333
352.076 86.5813 226.294 23.9941 11.2383 -72.894 -9.25848 -1.52254 -0.00947547 -26.8939 -53.6798 -27.5223 0.0379729 -41.8785 0.0492041 -1.32068 25.9743 -10.7068 0.0737403 -43.7597 -0.208372 13.9826 8.69223 28.2589 9.30605 -1.64847 -0.0333589 22.2357 -44.7835 10.1954 0.0845421 -41.8726 -0.0616493 -0.627598 37.1638 3.30136 0.763074 -39.9619 0.249975 -14.7994 -16.0314 -24.6673 0.11106 14.2934 0.0894584 -7.42755 12.3885 14.2799 0.0557777 9.71798 0.0263676 -1.56789 3.22728 3.3734 0.0442737 10.1145 -0.0117842 -2.61687 5.18691 5.4969 0.0354535 9.71864 0.0136123 -0.357157 -0.163613 -0.26651 0.216864 10.376 0.0850679 -0.357485 -0.165048 -0.266143 0.200748 9.48045 0.0859572 -6.57935 -3.0468 -4.72155 -3.14332 6.95087 0.0722087 3.16398 -8.86368 16.6417 -12.7643 0.137663 0.228635 78.7204 -6.69752 43.6134 -26.5447 -0.389186 -0.00603507 52.1894 -48.7523 50.5751 -26.1282 -0.0585664 0.0704552 15.6182 -18.4803 -26.8001 -2.48905 0.190105 3.12053 28.184 10.7294 19.1592 -3.68274 -7.10543e-15 -5.68434e-14 -9.15495e-15 5.31749e-15 -10 -2.55832 3.55271e-15 -5.68434e-14 -1.49038e-14 7.05686e-15 -10 -3.22368 0.508421 1.97842 3.18055e-15 -1.98785e-15 1.19271e-15 -5.21684 -0.091368 0.999158 19.9818 0.871897 2.3964 -3.61937 2.13163e-14 0 24 6.00081e-15 1.99282e-14 -2.0521 -1.42109e-14 5.68434e-14 20 -1.41634e-15 -1.0635e-14 -3.38211 0.517263 0.756737 3.18055e-15 -1.98785e-15 1.19271e-15 -5.17411 -0.084 0.313895 20 7.90169e-15 8.34896e-15 -3.94947 7.10543e-15 0 24 -4.87022e-15 2.46493e-14 -2.47579 0 -5.68434e-14 20 -1.31198e-14 -1.19271e-14 -3.36516 0.537895 -0.128947 3.18055e-15 -1.98785e-15 1.19271e-15 -4.63474 -0.022105 -0.478947 19.9748 -1.02565 -2.81938 -3.44238 -1.42109e-14 -5.68434e-14 24 5.96354e-15 2.8625e-14 -2.3881 2.84217e-14 0 20 -7.95139e-16 -6.36111e-15 -3.16105 0.469368 -1.20179 3.18055e-15 -1.98785e-15 1.19271e-15 -4.14105 -0.022105 -1.09053 19.7815 -3.00948 -8.30515 -2.75653 0 0 24 7.15625e-15 2.22639e-14 -1.74189 0 5.68434e-14 20 5.56597e-15 -1.59028e-15 3.26531 6.89455 -0.038198 13.2465 -12.9556 -33.5939 12.4839 0.0180023 -0.0323257 -29.69 32.9889 -73.2651 26.5016 -0.126002 0.247609 8.21621 -46.9466 8.94467 25.9993 -0.023235 0.00532866 -21.8093 -19.2781 11.2197 2.48905 0.190105 3.12053 -28.184 10.7294 -19.1592 3.68274 -1.42109e-14 2.84217e-14 -2.6688e-15 -3.18055e-15 10 2.55832 1.42109e-14 0 6.94996e-15 -2.78299e-15 10 3.22368 0.508421 1.97842 3.18055e-15 7.95139e-16 1.98785e-16 5.21684 -0.091368 0.999158 -19.9818 0.871897 -2.3964 3.61937 -2.84217e-14 5.68434e-14 -24 -1.59028e-15 1.82882e-14 2.0521 7.10543e-15 0 -20 -2.36057e-15 1.19271e-14 3.38211 0.517263 0.756737 3.18055e-15 7.95139e-16 1.98785e-16 5.17411 -0.084 0.313895 -20 -2.78299e-15 1.51076e-14 3.94947 0 0 -24 -1.78906e-15 1.19271e-14 2.47579 -7.10543e-15 0 -20 -1.26725e-15 8.74653e-15 3.36516 0.537895 -0.128947 3.18055e-15 7.95139e-16 1.98785e-16 4.63474 -0.022105 -0.478947 -19.9748 -1.02565 2.81938 3.44238 0 5.68434e-14 -24 -4.37326e-15 1.35174e-14 2.3881 0 -5.68434e-14 -20 -1.22998e-15 1.23246e-14 3.16105 0.469368 -1.20179 3.18055e-15 7.95139e-16 1.98785e-16 4.14105 -0.022105 -1.09053 -19.7815 -3.00948 8.30515 2.75653 0 5.68434e-14 -24 -5.2181e-16 1.74931e-14 1.74189 0 -5.68434e-14 -20 -2.5842e-15 1.49089e-14 
352.133 86.5686 226.38 23.9545 11.1923 -73.153 -9.25788 -1.52283 -0.0098376 -26.732 -53.7054 -27.3468 0.0371243 -41.8782 0.0500305 -1.30026 25.9026 -10.6999 0.09549 -43.7875 -0.1832 13.9767 8.80262 28.396 9.31004 -1.64994 -0.0406685 22.3142 -44.7053 10.3059 0.0881386 -41.8675 -0.075707 -0.714602 37.2743 3.42176 0.775148 -39.9335 0.248199 -14.7065 -16.0989 -24.5862 0.111508 14.2932 0.0907752 -7.33843 12.3513 14.0979 0.0563172 9.71797 0.0263931 -1.54996 3.21091 3.33003 0.0435684 10.1144 -0.0121675 -2.58766 5.16011 5.42901 0.0346206 9.71864 0.013263 -0.366522 -0.162945 -0.239971 0.219168 10.3751 0.0849037 -0.366859 -0.164358 -0.239586 0.205218 9.48109 0.0870184 -6.7344 -3.02075 -4.24843 -3.14411 6.94908 0.0697852 3.20484 -8.6623 16.4311 -12.7644 0.123019 0.214909 79.2296 -7.11864 43.2374 -26.5434 -0.367959 -0.0158378 53.2436 -48.0397 52.2564 -26.1352 -0.0731396 0.108127 15.3262 -18.5006 -27.0397 -2.48905 0.190105 3.12053 28.184 10.7294 19.1592 -3.68274 1.77636e-15 5.68434e-14 3.43209e-15 -2.28602e-15 -10 -2.55832 -8.88178e-15 5.68434e-14 1.16476e-14 -6.06293e-15 -10 -3.22368 0.508421 1.97842 8.79333e-33 -8.44835e-16 5.96354e-16 -5.21684 -0.091368 0.999158 19.9818 0.871897 2.3964 -3.61937 0 0 24 -1.54058e-15 -1.78906e-15 -2.0521 0 5.68434e-14 20 7.45443e-15 1.66979e-14 -3.38211 0.517263 0.756737 8.79333e-33 -8.44835e-16 5.96354e-16 -5.17411 -0.084 0.313895 20 2.75814e-15 3.27995e-15 -3.94947 7.10543e-15 0 24 -6.21202e-15 -1.58034e-14 -2.47579 1.42109e-14 -1.13687e-13 20 1.10325e-14 1.86858e-14 -3.36516 0.537895 -0.128947 8.79333e-33 -8.44835e-16 5.96354e-16 -4.63474 -0.022105 -0.478947 19.9748 -1.02565 -2.81938 -3.44238 -1.42109e-14 0 24 -2.48481e-15 -2.14687e-14 -2.3881 0 -5.68434e-14 20 5.96354e-15 1.39149e-14 -3.16105 0.469368 -1.20179 8.79333e-33 -8.44835e-16 5.96354e-16 -4.14105 -0.022105 -1.09053 19.7815 -3.00948 -8.30515 -2.75653 -7.10543e-15 0 24 -5.1684e-15 -2.06736e-14 -1.74189 0 -5.68434e-14 20 2.38542e-15 1.27222e-14 3.26349 6.89511 -0.0373062 13.2684 -12.9444 -33.8328 12.4849 0.0196156 -0.0246046 -29.7531 32.9793 -73.2291 26.502 -0.120667 0.246241 8.12023 -45.4935 8.54031 25.9992 -0.0231441 0.0044334 -21.9276 -19.1911 11.1993 2.48905 0.190105 3.12053 -28.184 10.7294 -19.1592 3.68274 0 -2.84217e-14 -1.29185e-14 0 10 2.55832 -1.42109e-14 0 2.7389e-15 2.78299e-15 10 3.22368 0.508421 1.97842 -3.18055e-15 -3.97569e-16 -0 5.21684 -0.091368 0.999158 -19.9818 0.871897 -2.3964 3.61937 -2.84217e-14 5.68434e-14 -24 -1.19271e-15 -1.98785e-15 2.0521 0 -5.68434e-14 -20 -1.25483e-15 8.74653e-15 3.38211 0.517263 0.756737 -3.18055e-15 -3.97569e-16 -0 5.17411 -0.084 0.313895 -20 -3.97569e-16 -2.5842e-15 3.94947 -2.84217e-14 -5.68434e-14 -24 -7.95139e-16 -1.98785e-15 2.47579 -7.10543e-15 0 -20 -1.95057e-15 1.19271e-14 3.36516 0.537895 -0.128947 -3.18055e-15 -3.97569e-16 -0 4.63474 -0.022105 -0.478947 -19.9748 -1.02565 2.81938 3.44238 -2.84217e-14 5.68434e-14 -24 1.63997e-15 3.97569e-15 2.3881 0 0 -20 6.21202e-16 6.36111e-15 3.16105 0.469368 -1.20179 -3.18055e-15 -3.97569e-16 -0 4.14105 -0.022105 -1.09053 -19.7815 -3.00948 8.30515 2.75653 0 -5.68434e-14 -24 -2.18663e-15 1.59028e-15 1.74189 0 0 -20 1.90088e-15 5.76476e-15 
352.195 86.5577 226.474 23.9097 11.1457 -73.411 -9.25727 -1.52764 -0.00998487 -26.5706 -53.732 -27.1832 0.0358608 -41.8778 0.0508292 -1.28394 25.838 -10.6862 0.102654 -43.8192 -0.147999 13.9686 8.91048 28.5342 9.31063 -1.65148 -0.0441156 22.3814 -44.613 10.3996 0.0889951 -41.8624 -0.0860013 -0.806082 37.3658 3.54131 0.787229 -39.9073 0.240451 -14.5998 -16.1608 -24.4897 0.110743 14.293 0.0921337 -7.24386 12.3183 13.9033 0.0568656 9.71795 0.0264185 -1.5308 3.19525 3.28357 0.0428826 10.1144 -0.0125248 -2.5564 5.13438 5.35611 0.0338234 9.71863 0.0129345 -0.376909 -0.162315 -0.212831 0.223496 10.3743 0.0847431 -0.377271 -0.163714 -0.212427 0.210253 9.48173 0.0885529 -6.90815 -2.9914 -3.76465 -3.14488 6.94721 0.0672493 3.25904 -8.46431 16.2116 -12.7644 0.116596 0.208902 79.7485 -7.58176 42.8434 -26.5406 -0.338468 -0.00715373 54.1639 -47.2803 53.8008 -26.1359 -0.0827694 0.129748 15.1462 -18.6247 -27.0962 -2.48905 0.190105 3.12053 28.184 10.7294 19.1592 -3.68274 5.32907e-15 -5.68434e-14 2.89525e-15 3.2551e-15 -10 -2.55832 -1.77636e-15 5.68434e-14 -5.91695e-15 6.79595e-15 -10 -3.22368 0.508421 1.97842 -3.18055e-15 4.47266e-16 6.95746e-16 -5.21684 -0.091368 0.999158 19.9818 0.871897 2.3964 -3.61937 1.42109e-14 0 24 -3.57812e-15 -5.96354e-15 -2.0521 0 0 20 -5.96354e-15 -2.8625e-14 -3.38211 0.517263 0.756737 -3.18055e-15 4.47266e-16 6.95746e-16 -5.17411 -0.084 0.313895 20 -2.70844e-15 -3.77691e-15 -3.94947 -1.42109e-14 -5.68434e-14 24 8.10048e-15 1.0635e-14 -2.47579 1.42109e-14 5.68434e-14 20 -3.8763e-15 -2.42517e-14 -3.36516 0.537895 -0.128947 -3.18055e-15 4.47266e-16 6.95746e-16 -4.63474 -0.022105 -0.478947 19.9748 -1.02565 -2.81938 -3.44238 0 0 24 6.85807e-15 1.8487e-14 -2.3881 2.84217e-14 0 20 -8.34896e-15 -2.84262e-14 -3.16105 0.469368 -1.20179 -3.18055e-15 4.47266e-16 6.95746e-16 -4.14105 -0.022105 -1.09053 19.7815 -3.00948 -8.30515 -2.75653 -7.10543e-15 -5.68434e-14 24 1.23246e-14 4.13472e-14 -1.74189 0 5.68434e-14 20 -2.38542e-15 -1.51076e-14 3.26179 6.89565 -0.0365196 13.286 -12.9409 -34.085 12.4745 0.0233809 -0.0164085 -29.8791 32.9331 -73.1023 26.5032 -0.117442 0.257356 7.95317 -43.9748 8.02175 25.9991 -0.0230658 0.00359025 -22.0377 -19.1171 11.1634 2.48905 0.190105 3.12053 -28.184 10.7294 -19.1592 3.68274 0 0 7.01022e-16 -3.97569e-15 10 2.55832 1.42109e-14 0 -6.47677e-15 9.93923e-17 10 3.22368 0.508421 1.97842 -3.18055e-15 -3.72721e-17 2.48481e-17 5.21684 -0.091368 0.999158 -19.9818 0.871897 -2.3964 3.61937 2.84217e-14 0 -24 -1.54058e-15 2.5842e-15 2.0521 -1.42109e-14 -5.68434e-14 -20 -2.17421e-16 6.95746e-15 3.38211 0.517263 0.756737 -3.18055e-15 -3.72721e-17 2.48481e-17 5.17411 -0.084 0.313895 -20 5.09386e-16 1.2424e-15 3.94947 0 0 -24 -6.52262e-16 -3.72721e-16 2.47579 0 5.68434e-14 -20 -5.87812e-16 3.98812e-15 3.36516 0.537895 -0.128947 -3.18055e-15 -3.72721e-17 2.48481e-17 4.63474 -0.022105 -0.478947 -19.9748 -1.02565 2.81938 3.44238 0 -5.68434e-14 -24 1.2921e-15 -2.5842e-15 2.3881 7.10543e-15 5.68434e-14 -20 -9.69075e-16 2.5842e-15 3.16105 0.469368 -1.20179 -3.18055e-15 -3.72721e-17 2.48481e-17 4.14105 -0.022105 -1.09053 -19.7815 -3.00948 8.30515 2.75653 0 0 -24 1.19271e-15 6.36111e-15 1.74189 -1.42109e-14 -5.68434e-14 -20 4.52235e-15 3.97569e-15 
